<mxfile host="app.diagrams.net" modified="2024-02-22T07:52:22.787Z" agent="Mozilla/5.0 (Windows NT 10.0; Win64; x64) AppleWebKit/537.36 (KHTML, like Gecko) Chrome/121.0.0.0 Safari/537.36" etag="cq6RvXwXWhPc-w4EiO0I" version="23.1.5" type="github">
  <diagram name="第 1 页" id="Jt86_-szV2gGwSEn68c9">
    <mxGraphModel dx="2074" dy="1118" grid="1" gridSize="10" guides="1" tooltips="1" connect="1" arrows="1" fold="1" page="1" pageScale="1" pageWidth="827" pageHeight="1169" math="0" shadow="0">
      <root>
        <mxCell id="0" />
        <mxCell id="1" parent="0" />
        <mxCell id="5JH7Js-R7b0I01krZab9-15" value="" style="rounded=0;whiteSpace=wrap;html=1;" vertex="1" parent="1">
          <mxGeometry x="20" y="90" width="1090" height="550" as="geometry" />
        </mxCell>
        <mxCell id="5JH7Js-R7b0I01krZab9-8" style="edgeStyle=orthogonalEdgeStyle;rounded=0;orthogonalLoop=1;jettySize=auto;html=1;exitX=1;exitY=0.5;exitDx=0;exitDy=0;entryX=0;entryY=0.5;entryDx=0;entryDy=0;" edge="1" parent="1" source="5JH7Js-R7b0I01krZab9-1" target="5JH7Js-R7b0I01krZab9-3">
          <mxGeometry relative="1" as="geometry" />
        </mxCell>
        <mxCell id="5JH7Js-R7b0I01krZab9-1" value="Embedding" style="rounded=1;whiteSpace=wrap;html=1;fontSize=20;" vertex="1" parent="1">
          <mxGeometry x="280" y="130" width="170" height="70" as="geometry" />
        </mxCell>
        <mxCell id="5JH7Js-R7b0I01krZab9-7" style="edgeStyle=orthogonalEdgeStyle;rounded=0;orthogonalLoop=1;jettySize=auto;html=1;exitX=1;exitY=0.5;exitDx=0;exitDy=0;entryX=0;entryY=0.5;entryDx=0;entryDy=0;" edge="1" parent="1" source="5JH7Js-R7b0I01krZab9-2" target="5JH7Js-R7b0I01krZab9-1">
          <mxGeometry relative="1" as="geometry" />
        </mxCell>
        <mxCell id="5JH7Js-R7b0I01krZab9-2" value="原始数据" style="rounded=0;whiteSpace=wrap;html=1;fontSize=20;" vertex="1" parent="1">
          <mxGeometry x="40" y="130" width="160" height="70" as="geometry" />
        </mxCell>
        <mxCell id="5JH7Js-R7b0I01krZab9-11" style="edgeStyle=orthogonalEdgeStyle;rounded=0;orthogonalLoop=1;jettySize=auto;html=1;exitX=1;exitY=0.5;exitDx=0;exitDy=0;entryX=0;entryY=0.5;entryDx=0;entryDy=0;" edge="1" parent="1" source="5JH7Js-R7b0I01krZab9-3" target="5JH7Js-R7b0I01krZab9-6">
          <mxGeometry relative="1" as="geometry" />
        </mxCell>
        <mxCell id="5JH7Js-R7b0I01krZab9-3" value="向量数据库" style="shape=datastore;whiteSpace=wrap;html=1;fontSize=20;" vertex="1" parent="1">
          <mxGeometry x="590" y="190" width="110" height="130" as="geometry" />
        </mxCell>
        <mxCell id="5JH7Js-R7b0I01krZab9-9" style="edgeStyle=orthogonalEdgeStyle;rounded=0;orthogonalLoop=1;jettySize=auto;html=1;exitX=1;exitY=0.5;exitDx=0;exitDy=0;entryX=0;entryY=0.5;entryDx=0;entryDy=0;" edge="1" parent="1" source="5JH7Js-R7b0I01krZab9-4" target="5JH7Js-R7b0I01krZab9-5">
          <mxGeometry relative="1" as="geometry" />
        </mxCell>
        <mxCell id="5JH7Js-R7b0I01krZab9-4" value="用户提问" style="rounded=0;whiteSpace=wrap;html=1;fontSize=20;" vertex="1" parent="1">
          <mxGeometry x="50" y="420" width="160" height="60" as="geometry" />
        </mxCell>
        <mxCell id="5JH7Js-R7b0I01krZab9-10" style="edgeStyle=orthogonalEdgeStyle;rounded=0;orthogonalLoop=1;jettySize=auto;html=1;exitX=1;exitY=0.5;exitDx=0;exitDy=0;entryX=0.5;entryY=1;entryDx=0;entryDy=0;" edge="1" parent="1" source="5JH7Js-R7b0I01krZab9-5" target="5JH7Js-R7b0I01krZab9-3">
          <mxGeometry relative="1" as="geometry" />
        </mxCell>
        <mxCell id="5JH7Js-R7b0I01krZab9-5" value="Embedding" style="rounded=1;whiteSpace=wrap;html=1;fontSize=20;" vertex="1" parent="1">
          <mxGeometry x="280" y="415" width="170" height="70" as="geometry" />
        </mxCell>
        <mxCell id="5JH7Js-R7b0I01krZab9-14" style="edgeStyle=orthogonalEdgeStyle;rounded=0;orthogonalLoop=1;jettySize=auto;html=1;exitX=0.5;exitY=1;exitDx=0;exitDy=0;entryX=0.5;entryY=1;entryDx=0;entryDy=0;" edge="1" parent="1" source="5JH7Js-R7b0I01krZab9-6" target="5JH7Js-R7b0I01krZab9-4">
          <mxGeometry relative="1" as="geometry">
            <Array as="points">
              <mxPoint x="1010" y="570" />
              <mxPoint x="130" y="570" />
            </Array>
          </mxGeometry>
        </mxCell>
        <mxCell id="5JH7Js-R7b0I01krZab9-6" value="大语言模型" style="rounded=0;whiteSpace=wrap;html=1;fontSize=20;" vertex="1" parent="1">
          <mxGeometry x="940" y="330" width="140" height="60" as="geometry" />
        </mxCell>
        <mxCell id="5JH7Js-R7b0I01krZab9-13" value="prompt+用户问题+payload" style="text;html=1;align=center;verticalAlign=middle;whiteSpace=wrap;rounded=0;fontSize=20;" vertex="1" parent="1">
          <mxGeometry x="740" y="220" width="240" height="30" as="geometry" />
        </mxCell>
      </root>
    </mxGraphModel>
  </diagram>
</mxfile>
